<?xml version="1.0" standalone="no"?>
<!DOCTYPE svg PUBLIC "-//W3C//DTD SVG 20010904//EN"
 "http://www.w3.org/TR/2001/REC-SVG-20010904/DTD/svg10.dtd">
<svg version="1.0" xmlns="http://www.w3.org/2000/svg"
 width="50.000000pt" height="50.000000pt" viewBox="0 0 50.000000 50.000000"
 preserveAspectRatio="xMidYMid meet">

<g transform="translate(0.000000,50.000000) scale(0.100000,-0.100000)"
fill="#000000" stroke="none">
<path d="M0 250 l0 -250 250 0 250 0 0 250 0 250 -250 0 -250 0 0 -250z m403
174 c3 -4 -34 -36 -84 -71 l-90 -64 -88 63 c-49 35 -87 66 -84 71 5 9 337 10
346 1z m-263 -100 l90 -66 89 66 c48 36 91 66 95 66 3 0 6 -29 6 -65 0 -62 -1
-65 -19 -55 -64 34 -151 -17 -151 -89 0 -20 -6 -21 -93 -21 -59 0 -97 4 -105
12 -12 12 -18 218 -7 218 3 0 46 -30 95 -66z m230 -119 c0 -33 -4 -45 -15 -45
-11 0 -15 12 -15 45 0 33 4 45 15 45 11 0 15 -12 15 -45z m0 -85 c0 -11 -7
-20 -15 -20 -8 0 -15 9 -15 20 0 11 7 20 15 20 8 0 15 -9 15 -20z"/>
</g>
</svg>
